<svg enable-background="new 0 0 312.8 181.3" viewBox="0 0 312.8 181.3" xmlns="http://www.w3.org/2000/svg"><path d="m104.6 180.5h-50.9c-29.7 0-53.7-21.8-53.7-48.6 0-25.2 21.2-46 48.4-48.4-.3-1.8-.4-3.5-.4-5.3 0-22.5 20.2-40.8 45-40.8 6.4 0 12.8 1.3 18.7 3.7 10.2-24 35.9-41.1 66-41.1 39.1 0 70.8 28.7 70.8 64.1h.1c35.4 0 64.2 26 64.2 58.1s-28.7 58.1-64.2 58.1z" fill="#2291a1"/><g fill="#fff"><path d="m139.4 129.1-12.7-4.5v-18.5l12.7 4.3z"/><path d="m141.7 129.1 12.7-4.5v-18.5l-12.7 4.3z"/><path d="m128 104.6 12.8-3.6 11.9 3.8-11.9 4z"/><path d="m124.3 103.2-12.7-4.5v-18.5l12.7 4.3z"/><path d="m126.6 103.2 12.7-4.5v-18.5l-12.7 4.3z"/><path d="m113 78.7 12.8-3.6 11.9 3.8-11.9 4z"/><path d="m153.8 103.2-12.7-4.5v-18.5l12.7 4.3z"/><path d="m156.1 103.2 12.7-4.5v-18.5l-12.7 4.3z"/><path d="m142.5 78.7 12.8-3.6 11.9 3.8-11.9 4z"/><path d="m168.9 77.3-12.7-4.5v-18.5l12.7 4.3z"/><path d="m171.2 77.3 12.7-4.5v-18.5l-12.7 4.2z"/><path d="m157.5 52.8 12.8-3.6 11.9 3.8-11.9 4z"/><path d="m198.4 77.3-12.7-4.5v-18.5l12.7 4.3z"/><path d="m200.7 77.3 12.7-4.5v-18.5l-12.7 4.3z"/><path d="m187 52.8 12.8-3.6 11.9 3.8-11.9 4z"/><path d="m193.1 112.3c0 .9.1 1.8.3 2.7.3.8.6 1.5 1 2.2.1.2.2.5.2.7 0 .4-.2.7-.6.9l-1.9 1.3c-.2.2-.5.3-.8.3s-.7-.2-.9-.4c-.4-.4-.8-.9-1.1-1.4s-.6-1.1-1-1.8c-2.2 2.7-5.5 4.3-9 4.2-2.3.1-4.5-.7-6.1-2.2-3.2-3.5-3-9 .5-12.2 2.1-1.7 4.8-2.5 7.5-2.4 1.1 0 2.2.1 3.2.2 1.1.2 2.3.4 3.5.7v-2.2c0-2.3-.5-4-1.4-4.9s-2.6-1.4-5-1.4c-1.1 0-2.2.1-3.3.4s-2.2.6-3.3 1c-.3.2-.7.3-1.1.4-.2.1-.3.1-.5.1-.4 0-.7-.3-.7-1v-1.5c0-.4 0-.7.2-1.1.2-.3.5-.5.8-.6 1.2-.6 2.5-1.1 3.9-1.4 1.6-.4 3.2-.6 4.8-.6 3.7 0 6.3.8 8 2.5s2.6 4.2 2.6 7.5v9.9zm-12.4 4.6c1.1 0 2.1-.2 3.2-.5 1.1-.4 2.1-1.1 2.9-2 .5-.6.8-1.3 1-2 .2-.9.3-1.8.3-2.7v-1.2c-.9-.2-1.8-.4-2.8-.5s-1.9-.2-2.9-.2c-1.6-.1-3.2.3-4.6 1.2-1 .9-1.6 2.2-1.5 3.5-.3 2.2 1.3 4.1 3.5 4.4.2.1.5.1.9 0zm24.6 3.3c-.4 0-.8-.1-1.2-.3-.3-.3-.5-.7-.6-1.2l-7.2-23.7c-.1-.4-.2-.8-.3-1.2s.2-.7.6-.8h.2 3c.4-.1.9.1 1.2.3.3.3.5.8.6 1.2l5.2 20.3 4.8-20.3c.1-.5.3-.9.6-1.2.4-.2.8-.3 1.2-.3h2.5c.4 0 .9.1 1.2.3.3.3.5.7.6 1.2l4.8 20.5 5.3-20.5c.1-.4.3-.9.6-1.2.4-.2.8-.3 1.2-.3h2.8c.4 0 .7.2.8.6v.2c0 .2 0 .3-.1.5 0 .3-.1.5-.2.8l-7.4 23.7c-.1.5-.3.9-.6 1.2-.3.2-.8.3-1.2.3h-2.6c-.4 0-.9-.1-1.2-.3-.3-.3-.5-.8-.6-1.2l-4.8-19.8-4.7 19.8c-.1.5-.3.9-.6 1.2-.4.2-.8.3-1.2.3zm39.4.9c-1.6 0-3.2-.2-4.7-.5-1.2-.3-2.4-.7-3.5-1.2-.4-.2-.8-.5-1-.9-.1-.3-.2-.6-.2-.9v-1.6c0-.6.2-1 .7-1 .2 0 .4 0 .6.1s.5.2.8.3c1.1.5 2.2.8 3.4 1.1 1.2.2 2.4.4 3.7.4 1.6.1 3.1-.3 4.5-1 1-.6 1.6-1.7 1.6-2.9 0-.8-.3-1.6-.8-2.1-.9-.8-2-1.3-3.1-1.6l-4.4-1.4c-1.9-.5-3.6-1.6-4.9-3.1-1-1.3-1.5-2.8-1.5-4.5 0-1.2.3-2.4.8-3.4.6-1 1.3-1.8 2.2-2.5 1-.7 2-1.3 3.2-1.6 1.3-.4 2.6-.5 3.9-.5.7 0 1.3 0 2 .1s1.3.2 2 .3 1.2.3 1.7.5c.4.1.9.3 1.3.5s.7.4.9.8c.2.3.3.6.3 1v1.4c0 .6-.2 1-.7 1-.4 0-.8-.2-1.2-.4-1.9-.8-3.9-1.2-5.9-1.2-1.4-.1-2.8.2-4.1.9-.9.6-1.5 1.6-1.4 2.7 0 .8.3 1.6.9 2.2 1 .8 2.1 1.4 3.4 1.7l4.4 1.4c1.8.5 3.5 1.5 4.8 3 .9 1.2 1.4 2.7 1.4 4.3 0 1.2-.3 2.5-.8 3.6-.5 1-1.3 2-2.2 2.7-1 .8-2.2 1.4-3.4 1.7-1.8.4-3.2.6-4.7.6z"/><path d="m250.5 136c-10.1 7.5-24.8 11.4-37.4 11.4-16.8.1-33.1-6.1-45.6-17.4-.9-.9-.1-2 1-1.4 24.6 14.2 54.3 16 80.5 5 1.7-.7 3.2 1.1 1.5 2.4zm4.2-4.8c-1.3-1.6-8.5-.8-11.8-.4-1 .1-1.1-.7-.2-1.4 5.8-4 15.2-2.9 16.3-1.5s-.3 10.9-5.7 15.4c-.8.7-1.6.3-1.2-.6 1.2-3.1 3.9-9.9 2.6-11.5z"/><path d="m58.2 94.5-35.8 19.3.5 40.5 35.3 20.3 35.2-20.9-.5-40.8z"/></g><path d="m58.2 176.9-37.3-21.5-.5-42.9 37.8-20.4 36.8 19.4.5 43.2zm-33.3-23.7 33.3 19.1 33.2-19.7-.4-38.5-32.8-17.3-33.8 18.2z" fill="#5bc7d6"/><path d="m49.5 142.8v9.8l8.5 4.9 8.5-14.7z" fill="#2abec0"/><path d="m49.5 142.8 8.5 4.9 8.5-4.9-8.5-4.9z" fill="#5bc6d6"/><path d="m66.4 142.8-8.5 4.9v9.8l8.5-4.9z" fill="#2aa4bb"/><path d="m57.9 128.1v9.8l8.5 4.9 8.5-14.7z" fill="#cd2e2d"/><path d="m57.9 128.1 8.5 4.9 8.5-4.9-8.5-4.9z" fill="#e12527"/><path d="m74.9 128.1-8.5 4.9v9.8l8.5-4.9z" fill="#ae2b2c"/><path d="m41 128.1v9.8l8.5 4.9 8.5-14.7z" fill="#a9ba4c"/><path d="m41 128.1 8.5 4.9 8.5-4.9-8.5-4.9z" fill="#bac83a"/><path d="m57.9 128.1-8.5 4.9v9.8l8.5-4.9z" fill="#819e5e"/><path d="m49.5 133v9.8l8.5 4.9 8.5-14.7z" fill="#fecf0a"/><path d="m49.5 133 8.5 4.9 8.5-4.9-8.5-4.9z" fill="#fee000"/><path d="m66.4 133-8.5 4.9v9.8l8.5-4.9z" fill="#e4bd43"/><path d="m52.7 114.6v6l5.2 3 5.2-9z" fill="#2abec0"/><path d="m52.7 114.6 5.2 3 5.2-3-5.2-3z" fill="#5bc6d6"/><path d="m63.1 114.6-5.2 3v6l5.2-3z" fill="#2aa4bb"/><path d="m70.2 144.9v6l5.2 3 5.2-9z" fill="#a9ba4c"/><path d="m70.2 144.9 5.2 3 5.2-3-5.2-3z" fill="#bac83a"/><path d="m80.6 144.9-5.2 3v6l5.2-3z" fill="#819e5e"/><path d="m35.3 144.9v6l5.2 3 5.2-9z" fill="#cd2e2d"/><path d="m35.3 144.9 5.2 3 5.2-3-5.2-3z" fill="#e12527"/><path d="m45.7 144.9-5.2 3v6l5.2-3z" fill="#ae2b2c"/><circle cx="57.9" cy="94.3" fill="#5bc7d6" r="7.2"/></svg>