<svg width="257" height="229" viewBox="0 0 257 229" fill="none" xmlns="http://www.w3.org/2000/svg">
<g clip-path="url(#clip0)">
<rect x="26.1016" y="157" width="230.898" height="62" rx="31" fill="#00CA72" fill-opacity="0.5"/>
<path d="M224.897 219.39C242.627 219.39 257.001 205.454 257.001 188.264C257.001 171.074 242.627 157.138 224.897 157.138C207.166 157.138 192.793 171.074 192.793 188.264C192.793 205.454 207.166 219.39 224.897 219.39Z" fill="#00CA72"/>
<rect x="26.1016" y="78" width="230.898" height="62" rx="31" fill="#F7E28E"/>
<path d="M224.897 139.862C242.627 139.862 257.001 125.927 257.001 108.737C257.001 91.5463 242.627 77.6108 224.897 77.6108C207.166 77.6108 192.793 91.5463 192.793 108.737C192.793 125.927 207.166 139.862 224.897 139.862Z" fill="#FFCC00"/>
<rect x="26.1016" width="230.898" height="62" rx="31" fill="#F62B54" fill-opacity="0.5"/>
<path d="M227.086 62.2516C243.831 62.2516 257.406 48.3161 257.406 31.1258C257.406 13.9355 243.831 0 227.086 0C210.34 0 196.766 13.9355 196.766 31.1258C196.766 48.3161 210.34 62.2516 227.086 62.2516Z" fill="#F62B54"/>
</g>
<defs>
<clipPath id="clip0">
<rect width="257" height="229" fill="white"/>
</clipPath>
</defs>
</svg>
