<svg width="256" height="259" viewBox="0 0 256 259" fill="none" xmlns="http://www.w3.org/2000/svg">
<g clip-path="url(#clip0)">
<path d="M67.6628 221.823L71.8478 223.916C89.2878 234.379 108.819 239.262 128.351 239.262C189.736 239.262 239.96 189.038 239.96 127.653C239.96 98.356 228.101 69.756 207.175 48.829C186.248 27.902 158.345 16.044 128.351 16.044C66.9658 16.044 16.7408 66.268 17.4388 128.351C17.4388 149.277 23.7168 169.507 34.1798 186.945L36.9698 191.131L25.8098 232.287L67.6628 221.823Z" fill="#00E676"/>
<path d="M220.033 38.668C196.316 14.254 163.531 1 130.048 1C58.898 1 1.698 58.897 2.395 129.35C2.395 151.672 8.673 173.297 19.137 192.828L1 259.096L68.663 241.657C87.497 252.121 108.423 257.004 129.351 257.004C199.804 257.004 257.004 199.106 257.004 128.654C257.004 94.473 243.75 62.385 220.034 38.668H220.033ZM130.048 235.38C111.214 235.38 92.38 230.498 76.336 220.732L72.151 218.639L31.693 229.102L42.156 189.342L39.366 185.156C8.673 135.63 23.322 70.058 73.546 39.365C123.77 8.673 188.643 23.322 219.336 73.546C250.028 123.77 235.379 188.643 185.156 219.336C169.111 229.799 149.58 235.379 130.048 235.379V235.38ZM191.433 157.952L183.76 154.464C183.76 154.464 172.6 149.581 165.624 146.093C164.926 146.093 164.229 145.395 163.531 145.395C161.438 145.395 160.043 146.093 158.648 146.791C158.648 146.791 157.951 147.488 148.185 158.649C147.487 160.044 146.092 160.742 144.697 160.742H143.999C143.302 160.742 141.907 160.044 141.209 159.347L137.721 157.952C130.048 154.464 123.073 150.278 117.492 144.698C116.097 143.303 114.004 141.908 112.609 140.513C107.726 135.63 102.843 130.049 99.356 123.771L98.658 122.376C97.961 121.678 97.961 120.981 97.263 119.586C97.263 118.191 97.263 116.796 97.961 116.098C97.961 116.098 100.751 112.61 102.843 110.518C104.239 109.122 104.936 107.03 106.331 105.635C107.726 103.542 108.424 100.752 107.726 98.659C107.029 95.171 98.658 76.337 96.566 72.152C95.17 70.059 93.776 69.362 91.683 68.664H84.01C82.614 68.664 81.22 69.362 79.824 69.362L79.126 70.059C77.731 70.757 76.336 72.152 74.941 72.849C73.546 74.245 72.848 75.639 71.453 77.035C66.57 83.313 63.78 90.986 63.78 98.659C63.78 104.239 65.175 109.82 67.268 114.703L67.966 116.796C74.244 130.049 82.614 141.908 93.776 152.371L96.566 155.161C98.658 157.254 100.751 158.649 102.146 160.741C116.795 173.298 133.536 182.366 152.37 187.249C154.463 187.946 157.253 187.946 159.346 188.644H166.321C169.809 188.644 173.994 187.249 176.785 185.854C178.877 184.459 180.272 184.459 181.667 183.064L183.063 181.668C184.458 180.273 185.853 179.576 187.248 178.181C188.643 176.786 190.038 175.391 190.736 173.995C192.131 171.205 192.828 167.717 193.526 164.23V159.347C193.526 159.347 192.828 158.649 191.433 157.952V157.952Z" fill="white"/>
</g>
<defs>
<clipPath id="clip0">
<rect width="256" height="259" fill="white"/>
</clipPath>
</defs>
</svg>
