<svg width="534" height="516" viewBox="0 0 534 516" fill="none" xmlns="http://www.w3.org/2000/svg">
<path d="M510 40V120H30V40C30 31.2 37.2 24 46 24H494C502.8 24 510 31.2 510 40Z" fill="#5CD6B3"/>
<path d="M494 360H46C37.16 360 30 352.84 30 344V120H510V344C510 352.84 502.84 360 494 360Z" fill="#E6E9ED"/>
<path d="M286 152H478V248H286V152Z" fill="#FCD770"/>
<path d="M62 280H158V328H62V280Z" fill="#FF826E"/>
<path d="M190 56H222V88H190V56Z" fill="#E6E9ED"/>
<path d="M126 56H158V88H126V56Z" fill="#E6E9ED"/>
<path d="M62 56H94V88H62V56Z" fill="#E6E9ED"/>
<path d="M398 280H206C197.2 280 190 287.2 190 296V360V456C190 464.8 197.2 472 206 472H414V296C414 287.2 406.8 280 398 280Z" fill="#FFEAA7"/>
<path d="M302 440C337.346 440 366 411.346 366 376C366 340.654 337.346 312 302 312C266.654 312 238 340.654 238 376C238 411.346 266.654 440 302 440Z" fill="#69D6F4"/>
<path d="M302 304C262.304 304 230 336.304 230 376C230 415.696 262.304 448 302 448C341.696 448 374 415.696 374 376C374 336.304 341.696 304 302 304ZM289.288 400C287.928 395.12 286.912 389.76 286.392 384H317.6C317.08 389.76 316.064 395.12 314.704 400H289.288ZM308.552 416C306.312 420.512 304.016 424.256 302.008 427.16C300 424.256 297.696 420.512 295.456 416H308.552ZM286.392 368C286.912 362.24 287.928 356.88 289.288 352H314.704C316.064 356.88 317.08 362.24 317.6 368H286.392ZM295.456 336C297.696 331.488 299.992 327.744 302 324.84C304.008 327.744 306.312 331.488 308.544 336H295.456ZM277.832 336H262.88C268.856 330.152 276.144 325.656 284.24 322.936C282.064 326.704 279.848 331.048 277.832 336ZM272.776 352C271.616 356.984 270.728 362.304 270.304 368H246.64C247.456 362.352 249.104 356.976 251.48 352H272.776ZM270.304 384C270.728 389.696 271.616 395.016 272.776 400H251.48C249.104 395.024 247.456 389.648 246.64 384H270.304ZM277.832 416C279.848 420.952 282.064 425.296 284.24 429.064C276.136 426.344 268.856 421.848 262.88 416H277.832ZM326.168 416H341.12C335.144 421.848 327.856 426.344 319.76 429.064C321.936 425.296 324.152 420.952 326.168 416ZM331.224 400C332.384 395.016 333.272 389.696 333.696 384H357.36C356.544 389.648 354.896 395.024 352.52 400H331.224ZM333.696 368C333.272 362.304 332.384 356.984 331.224 352H352.52C354.896 356.976 356.544 362.352 357.36 368H333.696ZM326.168 336C324.152 331.048 321.936 326.704 319.76 322.936C327.864 325.656 335.144 330.152 341.12 336H326.168Z" fill="black"/>
<path d="M481.312 432L510.648 402.664L422 387.888V368H494C507.232 368 518 357.232 518 344V40C518 26.768 507.232 16 494 16H46C32.768 16 22 26.768 22 40V344C22 357.232 32.768 368 46 368H182V456C182 469.232 192.768 480 206 480H404.56L408.664 504.648L438 475.312L478 515.312L521.312 472L481.312 432ZM46 32H494C498.408 32 502 35.592 502 40V112H38V40C38 35.592 41.592 32 46 32ZM46 352C41.592 352 38 348.408 38 344V128H502V344C502 348.408 498.408 352 494 352H422V296C422 282.768 411.232 272 398 272H206C192.768 272 182 282.768 182 296V352H46ZM206 464C201.592 464 198 460.408 198 456V296C198 291.592 201.592 288 206 288H398C402.408 288 406 291.592 406 296V385.224L388.272 382.272L401.888 464H206ZM438 452.688L419.336 471.352L407.728 401.728L477.352 413.336L458.688 432L498.688 472L478 492.688L438 452.688Z" fill="black"/>
<path d="M102 48H54V96H102V48ZM86 80H70V64H86V80Z" fill="black"/>
<path d="M166 48H118V96H166V48ZM150 80H134V64H150V80Z" fill="black"/>
<path d="M230 48H182V96H230V48ZM214 80H198V64H214V80Z" fill="black"/>
<path d="M486 144H278V256H486V144ZM470 240H294V160H470V240Z" fill="black"/>
<path d="M54 144H70V160H54V144Z" fill="black"/>
<path d="M86 144H262V160H86V144Z" fill="black"/>
<path d="M54 176H262V192H54V176Z" fill="black"/>
<path d="M54 208H70V224H54V208Z" fill="black"/>
<path d="M86 208H102V224H86V208Z" fill="black"/>
<path d="M118 208H262V224H118V208Z" fill="black"/>
<path d="M246 240H262V256H246V240Z" fill="black"/>
<path d="M54 240H230V256H54V240Z" fill="black"/>
<path d="M54 336H166V272H54V336ZM70 288H150V320H70V288Z" fill="black"/>
<path d="M214 304H230V320H214V304Z" fill="black"/>
<path d="M374 304H390V320H374V304Z" fill="black"/>
<path d="M214 432H230V448H214V432Z" fill="black"/>
<path d="M63 431.092C68.4366 431.092 72.8438 426.3 72.8438 420.389C72.8438 414.478 68.4366 409.686 63 409.686C57.5634 409.686 53.1562 414.478 53.1562 420.389C53.1562 426.3 57.5634 431.092 63 431.092Z" fill="#007ACC"/>
<path d="M63 444.929C51.1683 445.24 39.3663 443.506 28.035 439.791C22.8006 437.987 17.9185 435.145 13.6356 431.409C12.0012 430.132 10.6402 428.486 9.64586 426.584C8.65152 424.682 8.04742 422.569 7.875 420.389C7.875 413.312 15.0255 406.376 27.0034 401.838C38.6376 397.817 50.7934 395.868 63 396.067C75.0436 395.884 87.0366 397.798 98.5241 401.735C103.565 403.483 108.282 406.187 112.455 409.724C114.061 410.941 115.402 412.527 116.382 414.37C117.362 416.213 117.957 418.268 118.125 420.389C118.125 427.744 110.132 435.198 97.2563 439.83C86.1443 443.423 74.5913 445.143 63 444.929V444.929ZM63 401.187C51.3218 401.018 39.6933 402.87 28.5508 406.676C17.5258 410.859 12.5843 416.578 12.5843 420.376C12.5843 424.349 17.8959 430.595 29.5588 434.932C40.399 438.468 51.686 440.114 63 439.808C74.0896 440.024 85.1442 438.393 95.7797 434.971C107.888 430.608 113.4 424.353 113.4 420.389C113.201 419.028 112.745 417.727 112.061 416.568C111.376 415.409 110.478 414.417 109.423 413.654C105.689 410.517 101.476 408.12 96.9767 406.573C85.9872 402.822 74.5171 401.003 63 401.187V401.187Z" fill="#007ACC"/>
<path d="M40.6349 473.772C38.7981 473.817 36.9829 473.333 35.3744 472.367C29.7359 468.831 27.7829 458.633 30.1494 445.083C32.7585 432.115 37.2794 419.692 43.5369 408.294C49.4066 396.859 56.9211 386.519 65.7956 377.666C69.7061 373.79 74.2174 370.699 79.1201 368.534C80.8934 367.631 82.8278 367.162 84.7861 367.162C86.7445 367.162 88.6789 367.631 90.4522 368.534C96.3151 372.208 98.2563 383.459 95.5198 397.899C92.83 410.163 88.4266 421.906 82.463 432.719C76.7998 444.018 69.5219 454.268 60.9012 463.086C56.8487 467.113 52.1456 470.291 47.0294 472.457C44.9812 473.284 42.8193 473.728 40.6349 473.772V473.772ZM47.6161 410.837C41.6473 421.752 37.3143 433.629 34.7799 446.025C32.6024 458.505 34.6932 466.01 37.733 467.919C40.883 469.901 48.5296 468.022 57.8142 459.203C66.0437 450.755 72.9903 440.944 78.3956 430.133C84.1086 419.796 88.3326 408.569 90.9208 396.842C93.4959 383.249 91.2712 374.926 88.1133 372.948C86.9298 372.455 85.665 372.234 84.3989 372.3C83.1329 372.366 81.8932 372.716 80.7581 373.329C76.3941 375.287 72.3819 378.067 68.9062 381.541C60.4275 390.021 53.2495 399.92 47.6437 410.863L47.6161 410.837Z" fill="#007ACC"/>
<path d="M85.3531 473.827C80.0178 473.827 73.2414 470.317 66.1854 463.719C57.1555 454.785 49.5139 444.323 43.5566 432.736C37.3776 421.495 32.8925 409.251 30.2714 396.469C29.1347 390.846 28.9241 385.048 29.6493 379.344C29.817 377.229 30.4095 375.179 31.3851 373.339C32.3607 371.499 33.6956 369.915 35.2957 368.697C41.1507 365.011 51.0851 368.8 61.2241 378.587C69.6527 387.244 76.8103 397.256 82.4472 408.273C88.6224 419.251 93.1545 431.227 95.8741 443.751C97.0598 449.581 97.2427 455.599 96.4136 461.502C96.2163 463.678 95.5884 465.783 94.5731 467.671C93.5577 469.559 92.1788 471.186 90.5309 472.44C88.9487 473.394 87.1617 473.872 85.3531 473.827V473.827ZM47.6319 430.159C53.3469 441.232 60.6464 451.245 69.2566 459.823C78.1121 468.108 85.1366 469.889 88.1566 467.958C91.3066 465.967 93.6297 457.841 91.2357 444.693C88.6129 432.736 84.2659 421.304 78.3562 410.824C72.9769 400.28 66.145 390.693 58.0977 382.397C48.5532 373.184 40.8121 371.124 37.6582 373.111C36.6752 373.979 35.8685 375.06 35.289 376.285C34.7096 377.51 34.3699 378.852 34.2916 380.226C33.6656 385.313 33.8695 390.479 34.8941 395.489C37.4152 407.713 41.7167 419.419 47.6358 430.167L47.6319 430.159Z" fill="#007ACC"/>
<path d="M109.045 380.757L165.56 359.333L223.597 380.376L214.2 459.929L165.56 488.589L117.681 460.31L109.045 380.757Z" fill="#E23237"/>
<path d="M223.597 380.376L165.56 359.333V488.589L214.2 459.977L223.597 380.376V380.376Z" fill="#B52E31"/>
<path d="M165.216 373L130 456.362L143.155 456.124L150.226 437.318H181.817L189.558 456.362L202.132 456.6L165.216 373ZM165.305 399.708L177.208 426.178H154.834L165.305 399.708Z" fill="white"/>
</svg>
